<?xml version="1.0" standalone="no"?>
<!DOCTYPE svg PUBLIC "-//W3C//DTD SVG 20010904//EN"
 "http://www.w3.org/TR/2001/REC-SVG-20010904/DTD/svg10.dtd">
<svg version="1.0" xmlns="http://www.w3.org/2000/svg"
 width="1280.000000pt" height="1210.000000pt" viewBox="0 0 1280.000000 1210.000000"
 preserveAspectRatio="xMidYMid meet">
<metadata>
Created by potrace 1.15, written by Peter Selinger 2001-2017
</metadata>
<g transform="translate(0.000000,1210.000000) scale(0.100000,-0.100000)"
fill="#000000" stroke="none">
<path d="M3290 11829 c-634 -59 -1240 -300 -1760 -703 -133 -103 -431 -399
-540 -536 -412 -520 -660 -1139 -720 -1800 -13 -147 -13 -474 0 -655 82 -1122
513 -2055 1400 -3030 71 -77 240 -251 376 -386 346 -342 513 -495 1224 -1119
723 -634 1085 -967 1454 -1336 622 -622 1090 -1184 1551 -1859 48 -72 95 -138
103 -147 13 -16 30 5 191 245 413 613 771 1058 1302 1617 417 438 781 780
1699 1595 582 517 668 595 985 896 348 330 658 663 900 964 666 831 1004 1645
1076 2595 15 197 7 594 -16 755 -85 616 -325 1176 -713 1665 -98 122 -390 414
-512 512 -533 423 -1147 669 -1820 729 -168 15 -550 6 -710 -16 -384 -53 -719
-155 -1055 -320 -509 -251 -942 -620 -1261 -1075 l-56 -80 -65 92 c-362 511
-849 905 -1418 1148 -303 129 -662 218 -1005 250 -134 12 -473 11 -610 -1z
m672 -524 c241 -31 452 -85 673 -172 569 -223 1057 -637 1377 -1169 63 -104
297 -584 357 -732 8 -18 16 -31 18 -28 3 2 69 143 148 312 242 516 354 685
654 984 226 226 435 377 716 520 698 356 1526 404 2262 133 149 -54 401 -178
528 -258 354 -224 676 -546 900 -900 72 -115 213 -401 260 -529 134 -365 190
-767 166 -1179 -67 -1130 -519 -2003 -1596 -3082 -299 -300 -500 -485 -1175
-1086 -294 -261 -636 -568 -760 -680 -847 -773 -1474 -1446 -1989 -2137 -62
-83 -116 -152 -120 -152 -3 1 -33 37 -66 82 -91 125 -317 405 -465 578 -249
290 -394 445 -770 820 -465 466 -672 657 -1485 1371 -920 807 -1249 1119
-1608 1522 -705 791 -1075 1553 -1182 2430 -49 404 -42 764 21 1089 183 943
841 1735 1735 2088 230 90 502 157 734 180 61 5 128 12 150 14 79 8 403 -4
517 -19z"/>
</g>
</svg>
